<svg width="43" height="30" viewBox="0 0 43 30" fill="none" xmlns="http://www.w3.org/2000/svg">
<path d="M10.752 30C8.98819 30 7.44488 29.6774 6.12205 29.0323C4.79921 28.3154 3.7336 27.3835 2.9252 26.2366C2.19029 25.0896 1.60236 23.7276 1.16142 22.1505C0.720472 20.5735 0.5 18.9247 0.5 17.2043C0.5 13.6918 1.41864 10.3943 3.25591 7.31183C5.16667 4.22939 8.1063 1.79212 12.0748 0L13.0669 1.93549C11.0092 2.86739 9.17192 4.22939 7.55512 6.02151C6.01181 7.74194 5.09318 9.5699 4.79921 11.5054C4.35827 13.0108 4.32152 14.4803 4.68898 15.914C6.30577 14.1935 8.47375 13.3333 11.1929 13.3333C13.6916 13.3333 15.7493 14.086 17.3661 15.5914C18.9829 17.0251 19.7913 19.0323 19.7913 21.6129C19.7913 24.1219 18.9462 26.1649 17.2559 27.7419C15.5656 29.2473 13.3976 30 10.752 30ZM33.4606 30C31.6968 30 30.1535 29.6774 28.8307 29.0323C27.5079 28.3154 26.4423 27.3835 25.6339 26.2366C24.8989 25.0896 24.311 23.7276 23.8701 22.1505C23.4291 20.5735 23.2087 18.9247 23.2087 17.2043C23.2087 13.6918 24.1273 10.3943 25.9646 7.31183C27.8753 4.22939 30.815 1.79212 34.7835 0L35.7756 1.93549C33.7178 2.86739 31.8806 4.22939 30.2638 6.02151C28.7205 7.74194 27.8018 9.5699 27.5079 11.5054C27.0669 13.0108 27.0302 14.4803 27.3976 15.914C29.0144 14.1935 31.1824 13.3333 33.9016 13.3333C36.4003 13.3333 38.458 14.086 40.0748 15.5914C41.6916 17.0251 42.5 19.0323 42.5 21.6129C42.5 24.1219 41.6549 26.1649 39.9646 27.7419C38.2743 29.2473 36.1063 30 33.4606 30Z" fill="#12A79D"/>
</svg>
